HIERARCHY
ROOT hip
{
	OFFSET 0.000000 0.000000 0.000000 
	CHANNELS 6 Xposition Yposition Zposition Xrotation Zrotation Yrotation
	JOINT abdomen
	{
		OFFSET 0.000000 3.402643 0.000000 
		CHANNELS 3 Xrotation Zrotation Yrotation
		JOINT chest
		{
			OFFSET 0.000000 8.438565 -0.680529 
			CHANNELS 3 Xrotation Zrotation Yrotation
			JOINT neck
			{
				OFFSET 0.000000 10.207942 -0.272212 
				CHANNELS 3 Xrotation Zrotation Yrotation
				JOINT head
				{
					OFFSET 0.000000 3.130431 0.000000 
					CHANNELS 3 Xrotation Zrotation Yrotation
					End Site
					{
						OFFSET 0.000000 3.130435 0.000000 
					}
				}
			}
			JOINT lCollar
			{
				OFFSET 3.470700 6.669187 -0.816635 
				CHANNELS 3 Yrotation Zrotation Xrotation
				JOINT lShldr
				{
					OFFSET 3.198488 0.000000 0.000000 
					CHANNELS 3 Zrotation Yrotation Xrotation
					JOINT lForeArm
					{
						OFFSET 10.139888 0.000000 0.000000 
						CHANNELS 3 Yrotation Zrotation Xrotation
						JOINT lHand
						{
							OFFSET 8.370511 0.000000 0.000000 
							CHANNELS 3 Zrotation Yrotation Xrotation
							End Site
							{
								OFFSET 4.083176 0.000000 0.000000 
							}
						}
					}
				}
			}
			JOINT rCollar
			{
				OFFSET -3.470700 6.669187 -0.816635 
				CHANNELS 3 Yrotation Zrotation Xrotation
				JOINT rShldr
				{
					OFFSET -3.198488 0.000000 0.000000 
					CHANNELS 3 Zrotation Yrotation Xrotation
					JOINT rForeArm
					{
						OFFSET -10.139888 0.000000 0.000000 
						CHANNELS 3 Yrotation Zrotation Xrotation
						JOINT rHand
						{
							OFFSET -8.370511 0.000000 0.000000 
							CHANNELS 3 Zrotation Yrotation Xrotation
							End Site
							{
								OFFSET -4.083176 0.000000 0.000000 
							}
						}
					}
				}
			}
		}
	}
	JOINT lThigh
	{
		OFFSET 5.308129 -1.633274 1.361059 
		CHANNELS 3 Xrotation Zrotation Yrotation
		JOINT lShin
		{
			OFFSET -2.041588 -20.007561 0.000000 
			CHANNELS 3 Xrotation Zrotation Yrotation
			JOINT lFoot
			{
				OFFSET 0.000000 -19.190928 -1.224953 
				CHANNELS 3 Xrotation Yrotation Zrotation
				End Site
				{
					OFFSET 0.000000 -2.449906 4.627600 
				}
			}
		}
	}
	JOINT rThigh
	{
		OFFSET -5.308129 -1.633274 1.361059 
		CHANNELS 3 Xrotation Zrotation Yrotation
		JOINT rShin
		{
			OFFSET 2.041588 -20.007561 0.000000 
			CHANNELS 3 Xrotation Zrotation Yrotation
			JOINT rFoot
			{
				OFFSET 0.000000 -19.190928 -1.224953 
				CHANNELS 3 Xrotation Yrotation Zrotation
				End Site
				{
					OFFSET 0.000000 -2.449906 4.627600 
				}
			}
		}
	}
}
MOTION
Frames: 18
Frame Time: 0.016667
0.000415 52.204170 0.998663 -10.360793 -0.497216 3.310592 28.744297 -0.356665 -0.034067 -0.456738 2.742805 -2.745831 -8.286933 -2.824415 0.328510 12.400656 0.631897 -5.449533 -8.599924 -13.439843 -0.713659 -56.961235 5.009777 -8.692960 -27.379265 -5.000000 34.264400 -23.411709 -6.988409 20.200296 8.438181 13.187755 -0.693404 58.157040 -1.066030 -3.795143 27.123478 5.000000 35.859169 19.824154 -14.382357 13.670823 18.697319 17.810177 8.726341 2.827302 -7.455304 -0.673482 -5.544772 7.118794 -9.019792 20.758381 -7.197189 -19.138613 1.648198 2.230561 0.074043 -5.463364 -7.605639 8.010605 
0.003372 52.202690 1.004602 -10.370244 -0.487452 3.339889 28.744154 -0.340663 -0.048923 -0.437512 2.752566 -2.765361 -8.306632 -2.853383 0.332890 12.421115 0.622175 -5.449533 -8.580518 -13.449598 -0.714162 -56.969170 4.973135 -8.693480 -27.388548 -5.000000 34.220333 -23.466541 -6.960704 20.254065 8.418528 13.178002 -0.692899 58.145454 -1.034697 -3.780335 27.147387 5.000000 35.819771 19.893497 -14.336910 13.634873 18.690557 17.803175 8.663019 2.820044 -7.447685 -0.691856 -5.512981 7.142206 -8.967754 20.790171 -7.197374 -19.138607 1.640800 2.248312 0.054313 -5.459945 -7.678659 7.999897 
0.006329 52.201202 1.009651 -10.380833 -0.497186 3.369183 28.734480 -0.323389 -0.041652 -0.418450 2.752551 -2.784881 -8.316510 -2.872693 0.335810 12.401689 0.622185 -5.439768 -8.551221 -13.449605 -0.714163 -56.974758 4.936950 -8.658858 -27.401409 -5.000000 34.168259 -23.509933 -6.944089 20.290024 8.420544 13.157068 -0.701295 58.135300 -1.027050 -3.785302 27.159855 5.000000 35.804241 19.980181 -14.304729 13.595216 18.694851 17.799173 8.623869 2.806129 -7.421560 -0.681047 -5.519545 7.126554 -8.952547 20.801928 -7.196721 -19.168934 1.626669 2.246511 0.053293 -5.482145 -7.658418 8.040208 
0.009290 52.199730 1.014106 -10.381580 -0.506925 3.388798 28.724972 -0.302987 -0.042812 -0.409623 2.752522 -2.823921 -8.316682 -2.901660 0.340190 12.372604 0.622206 -5.420238 -8.512285 -13.459363 -0.714667 -56.970715 4.910426 -8.617226 -27.410631 -5.000000 34.124195 -23.552147 -6.951627 20.292627 8.430186 13.147316 -0.700789 58.134472 -1.010468 -3.795415 27.173340 5.000000 35.808834 20.057783 -14.296622 13.565780 18.697603 17.810736 8.606119 2.809025 -7.399542 -0.680838 -5.528748 7.066045 -8.946507 20.835779 -7.167521 -19.201056 1.619071 2.239585 0.091857 -5.554255 -7.639195 8.088676 
0.011952 52.198544 1.018264 -10.382333 -0.516663 3.408329 28.715471 -0.273441 -0.040544 -0.400327 2.752507 -2.843441 -8.316798 -2.920971 0.343109 12.343413 0.622216 -5.410473 -8.480801 -13.470559 -0.705777 -56.966637 4.875714 -8.581759 -27.419828 -5.000000 34.080128 -23.581938 -6.953961 20.290676 8.427689 13.129242 -0.688153 58.143810 -1.001530 -3.800729 27.177156 5.000000 35.800877 20.145180 -14.290751 13.533975 18.688021 17.820593 8.577477 2.816694 -7.365214 -0.681672 -5.523385 7.020407 -8.977723 20.840229 -7.157576 -19.198809 1.619912 2.251298 0.062531 -5.570590 -7.687149 8.088065 
0.013431 52.198544 1.021236 -10.402216 -0.516642 3.447390 28.725161 -0.249160 -0.073089 -0.390250 2.742746 -2.843442 -8.316798 -2.920971 0.343109 12.363051 0.622226 -5.400709 -8.471035 -13.470559 -0.705777 -56.974667 4.855463 -8.571596 -27.435757 -5.000000 34.056923 -23.597195 -6.938599 20.289648 8.417803 13.119491 -0.687650 58.142376 -0.977844 -3.780965 27.188597 5.000000 35.769169 20.222765 -14.282538 13.504622 18.700436 17.822491 8.548294 2.818091 -7.364636 -0.671885 -5.529156 6.983729 -8.961034 20.861778 -7.157671 -19.228733 1.620252 2.250964 0.072303 -5.593675 -7.707547 8.089347 
0.014908 52.198544 1.024205 -10.421420 -0.506878 3.476685 28.734644 -0.241290 -0.091787 -0.380172 2.732985 -2.843444 -8.317289 -2.919509 0.352753 12.382583 0.622226 -5.400708 -8.461269 -13.470559 -0.705777 -56.973812 4.841972 -8.568762 -27.446512 -5.000000 34.029160 -23.621679 -6.919852 20.288610 8.407916 13.109738 -0.687146 58.151104 -0.961809 -3.756223 27.191372 5.000000 35.745022 20.302666 -14.270884 13.466434 18.704771 17.818565 8.489107 2.816204 -7.344305 -0.642566 -5.553134 6.934838 -8.950069 20.894030 -7.157811 -19.268631 1.619165 2.239699 0.072329 -5.619178 -7.724730 8.090964 
0.016391 52.198544 1.025986 -10.420998 -0.497120 3.496216 28.715061 -0.224220 -0.105961 -0.351957 2.723180 -2.853642 -8.336822 -2.919509 0.352753 12.363970 0.612503 -5.400604 -8.461269 -13.470559 -0.705777 -56.981728 4.805353 -8.568419 -27.448103 -5.000000 34.045460 -23.586151 -6.978955 20.280869 8.388264 13.099987 -0.686642 58.149586 -0.934964 -3.749898 27.227726 5.000000 35.690128 20.366783 -14.298913 13.454572 18.717154 17.820475 8.459929 2.807791 -7.347535 -0.641558 -5.557018 6.903511 -8.941509 20.904490 -7.157878 -19.258652 1.616049 2.254165 0.052684 -5.615471 -7.703179 8.121369 
0.017871 52.198544 1.027477 -10.421166 -0.497110 3.515747 28.695482 -0.218853 -0.093300 -0.304200 2.713374 -2.853609 -8.356352 -2.919509 0.352753 12.356043 0.593059 -5.400606 -8.461269 -13.470559 -0.705777 -56.980007 4.778375 -8.562752 -27.437344 -5.000000 34.073215 -23.535337 -7.053418 20.274059 8.349202 13.099986 -0.686642 58.147655 -0.899827 -3.748712 27.260271 5.000000 35.647125 20.430910 -14.326933 13.442662 18.692532 17.816963 8.448153 2.807832 -7.347632 -0.670796 -5.518368 6.848181 -8.945496 20.925438 -7.158773 -19.268877 1.612292 2.268677 0.072088 -5.602091 -7.720760 8.115099 
0.019351 52.197945 1.029556 -10.421765 -0.506857 3.515747 28.695469 -0.209709 -0.089870 -0.285132 2.713359 -2.843833 -8.356352 -2.919509 0.352753 12.346176 0.593049 -5.410371 -8.461144 -13.460807 -0.705274 -56.987968 4.749944 -8.557893 -27.430162 -5.000000 34.092976 -23.510702 -7.092447 20.250544 8.329552 13.090236 -0.686138 58.146896 -0.886404 -3.745548 27.280346 5.000000 35.615719 20.502903 -14.371217 13.414050 18.695251 17.828485 8.440421 2.816259 -7.344435 -0.681550 -5.538215 6.810464 -8.950559 20.936020 -7.158830 -19.268875 1.612929 2.280031 0.091585 -5.595312 -7.716431 8.128367 
0.020829 52.196457 1.032527 -10.422873 -0.526357 3.505981 28.695866 -0.200657 -0.064289 -0.294757 2.723134 -2.853609 -8.346645 -2.929165 0.354212 12.363658 0.612474 -5.429899 -8.461269 -13.470559 -0.705777 -56.996864 4.743189 -8.550539 -27.433752 -5.000000 34.081226 -23.535204 -7.073710 20.250782 8.329431 13.080484 -0.685634 58.146561 -0.881274 -3.737245 27.289017 5.000000 35.612083 20.580469 -14.435123 13.375101 18.713776 17.838070 8.474866 2.797920 -7.340997 -0.679511 -5.529747 6.764975 -8.970816 20.925526 -7.158000 -19.248665 1.609939 2.270348 0.071652 -5.638932 -7.625969 8.165309 
0.022307 52.194977 1.035499 -10.423882 -0.545863 3.486449 28.696295 -0.187481 -0.047546 -0.313677 2.732925 -2.843865 -8.336940 -2.938820 0.355672 12.382158 0.622185 -5.439769 -8.461269 -13.470559 -0.705777 -57.005020 4.739326 -8.529696 -27.424994 -5.000000 34.084686 -23.558598 -7.058879 20.240917 8.329309 13.070731 -0.685130 58.146225 -0.876143 -3.728941 27.297684 5.000000 35.608444 20.658113 -14.498950 13.336000 18.716457 17.849501 8.487172 2.790260 -7.322992 -0.678353 -5.525759 6.742251 -8.938820 20.926170 -7.129469 -19.201202 1.618472 2.264445 0.052689 -5.657012 -7.658706 8.182081 
0.022307 52.193489 1.035499 -10.424477 -0.555610 3.486448 28.677294 -0.161332 -0.056771 -0.283763 2.742716 -2.843888 -8.356532 -2.948476 0.357132 12.363866 0.612494 -5.410369 -8.431848 -13.460808 -0.705274 -57.015316 4.718609 -8.554631 -27.422981 -5.000000 34.108990 -23.543179 -7.094532 20.218622 8.331310 13.049813 -0.695740 58.164291 -0.851196 -3.709462 27.299341 5.000000 35.568134 20.725763 -14.555206 13.311976 18.713139 17.867096 8.492043 2.786012 -7.314193 -0.688148 -5.492526 6.741974 -8.939516 20.920469 -7.118677 -19.208675 1.615336 2.254676 0.052669 -5.670801 -7.656318 8.183105 
0.022306 52.192009 1.035496 -10.425762 -0.575100 3.496211 28.667814 -0.144029 -0.070141 -0.253843 2.752506 -2.843441 -8.376124 -2.958131 0.358592 12.346479 0.593078 -5.381076 -8.412316 -13.460807 -0.705274 -57.024868 4.700777 -8.566072 -27.415794 -5.000000 34.128746 -23.521690 -7.142146 20.199677 8.328830 13.031724 -0.683114 58.181599 -0.812842 -3.686653 27.309637 5.000000 35.524193 20.793449 -14.611424 13.287833 18.737728 17.899157 8.500772 2.787132 -7.334691 -0.688246 -5.504994 6.732319 -8.911615 20.917307 -7.100026 -19.213360 1.629818 2.256289 0.053314 -5.701135 -7.683264 8.180873 
0.022305 52.191414 1.035496 -10.426157 -0.584859 3.476680 28.668121 -0.138799 -0.057040 -0.244860 2.762252 -2.853664 -8.385950 -2.967787 0.360051 12.346581 0.593087 -5.371311 -8.392785 -13.460807 -0.705274 -57.032887 4.680541 -8.555856 -27.412199 -5.000000 34.136753 -23.513391 -7.161910 20.184065 8.328711 13.021974 -0.682610 58.190254 -0.793671 -3.675310 27.304754 5.000000 35.515961 20.834358 -14.662623 13.249371 18.735027 17.887680 8.498483 2.778908 -7.348201 -0.667803 -5.497472 6.715865 -8.876646 20.916922 -7.100056 -19.183428 1.629816 2.256290 0.053314 -5.717553 -7.674461 8.172992 
0.022305 52.191414 1.035496 -10.426446 -0.594625 3.447384 28.687761 -0.154308 -0.021426 -0.255097 2.762237 -2.843887 -8.385950 -2.967787 0.360051 12.364388 0.612543 -5.361544 -8.383020 -13.460808 -0.705274 -57.031357 4.678141 -8.534205 -27.412199 -5.000000 34.136753 -23.512266 -7.165807 20.175179 8.318945 13.021972 -0.682610 58.189926 -0.788547 -3.667002 27.313429 5.000000 35.516243 20.872396 -14.695893 13.197156 18.747295 17.889320 8.529424 2.787344 -7.344992 -0.668812 -5.526399 6.680726 -8.880291 20.895002 -7.100002 -19.123581 1.640800 2.248311 0.054313 -5.714995 -7.716003 8.175972 
0.022007 52.191414 1.035198 -10.426142 -0.594643 3.418088 28.688026 -0.157370 0.009365 -0.265334 2.762222 -2.843876 -8.385889 -2.958132 0.358592 12.373241 0.622266 -5.361542 -8.383020 -13.460808 -0.705274 -57.029762 4.667550 -8.517076 -27.412199 -5.000000 34.136753 -23.516071 -7.161630 20.155252 8.309179 13.021973 -0.682609 58.189163 -0.775128 -3.663828 27.309637 5.000000 35.524193 20.898561 -14.735581 13.143421 18.741205 17.895430 8.542077 2.798372 -7.361717 -0.669881 -5.533546 6.703766 -8.848381 20.884111 -7.099195 -19.073446 1.630205 2.231763 0.063181 -5.677269 -7.731601 8.160144 
0.020524 52.191414 1.033709 -10.426142 -0.594643 3.418088 28.677872 -0.149829 -0.009270 -0.244860 2.762252 -2.824367 -8.376062 -2.948476 0.357132 12.363370 0.622256 -5.371306 -8.383020 -13.460808 -0.705274 -57.020008 4.660807 -8.521603 -27.419388 -5.000000 34.120735 -23.504467 -7.123324 20.148209 8.301769 13.030313 -0.694730 58.188396 -0.761708 -3.660654 27.296080 5.000000 35.519588 20.920504 -14.803568 13.132266 18.741161 17.895338 8.562114 2.806571 -7.348155 -0.680578 -5.522170 6.663026 -8.866333 20.884241 -7.099184 -19.083424 1.627846 2.209066 0.082753 -5.704917 -7.719003 8.196310 
